<?xml version="1.0" ?><!DOCTYPE svg  PUBLIC '-//W3C//DTD SVG 1.1//EN'  'http://www.w3.org/Graphics/SVG/1.1/DTD/svg11.dtd'><svg height="43.3492mm" style="shape-rendering:geometricPrecision; text-rendering:geometricPrecision; image-rendering:optimizeQuality; fill-rule:evenodd; clip-rule:evenodd" version="1.1" viewBox="0 0 658 658" width="43.3492mm" xml:space="preserve" xmlns="http://www.w3.org/2000/svg" xmlns:xlink="http://www.w3.org/1999/xlink"><defs><style type="text/css">
   <![CDATA[
    .fil2 {fill:#A21112}
    .fil0 {fill:#C81516}
    .fil1 {fill:white}
   ]]>
  </style></defs><g id="Layer_x0020_1"><g id="_446913080"><rect class="fil0" height="658" rx="71" ry="71" width="658"/><path class="fil1" d="M184 213c-14,23 -21,47 -21,75 0,14 2,34 7,47 4,10 8,17 15,25 14,15 46,10 45,-10 0,-4 -3,-10 -5,-14 -17,-36 -20,-52 -4,-91 29,-69 130,-100 187,-46 19,17 26,42 28,67 1,37 -6,78 -29,108 -11,14 -27,26 -49,26 -18,0 -34,-7 -39,-22 -11,-33 27,-88 22,-126 -2,-13 -11,-20 -22,-23 -44,-16 -68,47 -59,85 1,7 3,11 6,17 2,4 -3,16 -4,25 -5,21 -11,42 -17,64 -5,20 -13,62 -14,82 0,21 2,37 3,57 12,-2 33,-37 39,-48 1,-3 3,-7 5,-11 1,-3 3,-9 4,-10 4,-17 12,-61 18,-74 2,0 9,5 12,7 38,27 79,27 118,0 29,-22 49,-54 59,-89 6,-25 6,-44 6,-71 -1,-48 -31,-87 -72,-110 -10,-5 -26,-12 -38,-14 -76,-17 -160,3 -201,74z"/><path class="fil2" d="M658 380l-195 -195c19,21 31,48 32,78 0,27 0,46 -6,71 -10,35 -30,67 -59,89 -39,27 -80,27 -118,0 -3,-2 -10,-7 -12,-7 -6,13 -14,57 -18,74 -1,1 -3,7 -4,10l-5 11c-6,11 -27,46 -39,48l118 99 235 0 71 -71 0 -207z"/><path class="fil2" d="M199 367c0,0 23,23 48,48 5,-20 10,-39 15,-59 1,-9 6,-21 4,-25 -3,-6 -5,-10 -6,-17 -9,-38 15,-101 59,-85 11,3 20,10 22,23 5,38 -33,93 -22,126 5,15 21,22 39,22 22,0 38,-12 49,-26 23,-30 30,-71 29,-108 -2,-25 -9,-50 -28,-67 -57,-54 -158,-23 -187,46 -16,39 -13,55 4,91 2,4 5,10 5,14 1,15 -16,21 -31,17z"/></g></g></svg>