<?xml version="1.0" ?><!DOCTYPE svg  PUBLIC '-//W3C//DTD SVG 1.1//EN'  'http://www.w3.org/Graphics/SVG/1.1/DTD/svg11.dtd'><svg height="43.3492mm" style="shape-rendering:geometricPrecision; text-rendering:geometricPrecision; image-rendering:optimizeQuality; fill-rule:evenodd; clip-rule:evenodd" version="1.1" viewBox="0 0 376 376" width="43.3492mm" xml:space="preserve" xmlns="http://www.w3.org/2000/svg" xmlns:xlink="http://www.w3.org/1999/xlink"><defs><style type="text/css">
   <![CDATA[
    .fil2 {fill:#29537C}
    .fil0 {fill:#336699}
    .fil1 {fill:white}
   ]]>
  </style></defs><g id="Layer_x0020_1"><g id="_445035040"><rect class="fil0" height="376" rx="41" ry="41" width="376"/><path class="fil1" d="M144 254c1,-5 0,-3 4,-5 6,1 9,5 18,8 13,5 35,4 48,-2 9,-3 11,-10 18,-3 -6,24 -77,23 -88,2zm129 -166c20,-7 27,23 10,28 -19,6 -30,-21 -10,-28zm-78 53l14 -49 43 9c2,6 3,22 22,25 14,3 25,-7 27,-17 8,-28 -30,-46 -46,-17l-52 -10 -19 58c-24,2 -49,6 -70,17 -12,8 -5,5 -17,0 -18,-7 -33,5 -38,16 -8,18 2,29 11,38 -1,65 67,89 122,88 31,-1 60,-10 81,-25 43,-32 28,-56 34,-65 0,0 24,-20 6,-42 -5,-6 -15,-13 -28,-11 -19,2 -5,11 -27,0 -13,-7 -46,-18 -63,-15zm29 47c20,-6 31,26 11,34 -20,7 -35,-19 -17,-31 2,-1 4,-2 6,-3zm-82 1c22,-9 33,24 14,32 -12,5 -21,-1 -24,-9 -5,-12 2,-20 10,-23zm137 -21c14,-13 45,11 24,32 -3,-3 -7,-12 -11,-18 -4,-4 -11,-11 -13,-14zm-207 32c-18,-17 4,-45 25,-32l-14 15c-6,7 -7,13 -11,17z"/><path class="fil2" d="M313 167c18,22 -6,42 -6,42 -6,9 9,33 -34,65 -21,15 -50,24 -81,25 -30,0 -65,-7 -90,-25l102 102 131 0 41 -41 0 -171c-14,-15 -61,-60 -78,-77 4,6 6,13 3,22 -2,10 -13,20 -27,17 -19,-3 -20,-19 -22,-25l-43 -9 -14 49c17,-3 50,8 63,15 22,11 8,2 27,0 13,-2 23,5 28,11z"/><path class="fil2" d="M303 200c21,-21 -10,-45 -24,-32 2,3 9,10 13,14 4,6 8,15 11,18z"/><path class="fil2" d="M234 222c21,-8 10,-40 -10,-34 -2,1 -4,2 -6,3 -18,12 -3,38 16,31z"/><path class="fil2" d="M156 221c19,-8 8,-41 -14,-32 -8,3 -15,11 -10,23 3,8 12,14 24,9z"/><path class="fil2" d="M214 255c-13,6 -35,7 -48,2 -9,-3 -12,-7 -18,-8 -4,2 -3,0 -4,5 11,21 82,22 88,-2 -7,-7 -9,0 -18,3z"/><path class="fil2" d="M83 183l14 -15c-21,-13 -43,15 -25,32 4,-4 5,-10 11,-17z"/><path class="fil2" d="M273 88c-20,7 -9,34 10,28 17,-5 10,-35 -10,-28z"/></g></g></svg>