<?xml version="1.0" ?><!DOCTYPE svg  PUBLIC '-//W3C//DTD SVG 1.1//EN'  'http://www.w3.org/Graphics/SVG/1.1/DTD/svg11.dtd'><svg height="43.3492mm" style="shape-rendering:geometricPrecision; text-rendering:geometricPrecision; image-rendering:optimizeQuality; fill-rule:evenodd; clip-rule:evenodd" version="1.1" viewBox="0 0 372 372" width="43.3492mm" xml:space="preserve" xmlns="http://www.w3.org/2000/svg" xmlns:xlink="http://www.w3.org/1999/xlink"><defs><style type="text/css">
   <![CDATA[
    .fil2 {fill:#2C4156}
    .fil0 {fill:#365069}
    .fil1 {fill:white}
   ]]>
  </style></defs><g id="Layer_x0020_1"><g id="_445045120"><rect class="fil0" height="372" rx="40" ry="40" width="372"/><path class="fil1" d="M199 307l15 0 3 -1c2,-1 4,0 6,-1 6,0 16,-3 21,-4 8,-3 13,-6 18,-7l0 -38c-1,0 -8,4 -13,6 -3,2 -11,4 -15,5 0,0 0,0 -1,0 0,0 -1,0 -1,0 -1,0 -1,0 -2,0 -5,0 -5,1 -13,-1 -4,-1 -8,-2 -10,-4 -8,-5 -10,-10 -10,-19 -1,-1 -1,2 -1,-1 0,-13 0,-26 0,-39 0,-6 -1,-36 0,-39 3,-1 49,0 56,0l0 -42 -49 0c-3,0 -5,0 -7,-1l0 -56 -34 0c-1,8 -3,17 -6,24 -2,7 -6,14 -10,19 -8,10 -18,16 -31,20 -2,1 -4,1 -5,2l0 34 33 0c0,4 0,20 0,25 0,20 -1,58 0,74 2,15 10,23 19,30 5,4 11,6 17,9 9,4 14,3 19,4 1,1 -2,0 0,0l1 1z"/><path class="fil2" d="M372 245l-120 -119 0 38c-7,0 -53,-1 -56,0 -1,3 0,33 0,39l0 39c0,3 0,0 1,1 0,9 2,14 10,19 2,2 6,3 10,4 8,2 8,1 13,1l2 0c0,0 1,0 1,0 1,0 1,0 1,0 4,-1 12,-3 15,-5 5,-2 12,-6 13,-6l0 38c-5,1 -10,4 -18,7 -5,1 -15,4 -21,4 -2,1 -4,0 -6,1l-3 1 -15 0 -1 -1c-2,0 1,1 0,0 -5,-1 -10,0 -19,-4 -6,-3 -12,-5 -16,-8l78 78 91 0 40 -40 0 -87z"/><path class="fil2" d="M203 122l49 0 -56 -57 0 56c2,1 4,1 7,1z"/><path class="fil2" d="M110 164l33 33c0,-3 0,-6 0,-8 0,-5 0,-21 0,-25l-33 0z"/></g></g></svg>